<svg class="lds-spinner" width="100px"  height="100px"  xmlns="http://www.w3.org/2000/svg" xmlns:xlink="http://www.w3.org/1999/xlink" viewBox="0 0 100 100" preserveAspectRatio="xMidYMid" style="background: none;"><g transform="rotate(0 50 50)">
  <rect x="46" y="20" rx="11.5" ry="5" width="8" height="10" fill="#0aa1f3">
    <animate attributeName="opacity" values="1;0" keyTimes="0;1" dur="0.7s" begin="-0.6533333333333332s" repeatCount="indefinite"></animate>
  </rect>
</g><g transform="rotate(24 50 50)">
  <rect x="46" y="20" rx="11.5" ry="5" width="8" height="10" fill="#0aa1f3">
    <animate attributeName="opacity" values="1;0" keyTimes="0;1" dur="0.7s" begin="-0.6066666666666667s" repeatCount="indefinite"></animate>
  </rect>
</g><g transform="rotate(48 50 50)">
  <rect x="46" y="20" rx="11.5" ry="5" width="8" height="10" fill="#0aa1f3">
    <animate attributeName="opacity" values="1;0" keyTimes="0;1" dur="0.7s" begin="-0.5599999999999999s" repeatCount="indefinite"></animate>
  </rect>
</g><g transform="rotate(72 50 50)">
  <rect x="46" y="20" rx="11.5" ry="5" width="8" height="10" fill="#0aa1f3">
    <animate attributeName="opacity" values="1;0" keyTimes="0;1" dur="0.7s" begin="-0.5133333333333333s" repeatCount="indefinite"></animate>
  </rect>
</g><g transform="rotate(96 50 50)">
  <rect x="46" y="20" rx="11.5" ry="5" width="8" height="10" fill="#0aa1f3">
    <animate attributeName="opacity" values="1;0" keyTimes="0;1" dur="0.7s" begin="-0.4666666666666667s" repeatCount="indefinite"></animate>
  </rect>
</g><g transform="rotate(120 50 50)">
  <rect x="46" y="20" rx="11.5" ry="5" width="8" height="10" fill="#0aa1f3">
    <animate attributeName="opacity" values="1;0" keyTimes="0;1" dur="0.7s" begin="-0.42s" repeatCount="indefinite"></animate>
  </rect>
</g><g transform="rotate(144 50 50)">
  <rect x="46" y="20" rx="11.5" ry="5" width="8" height="10" fill="#0aa1f3">
    <animate attributeName="opacity" values="1;0" keyTimes="0;1" dur="0.7s" begin="-0.3733333333333333s" repeatCount="indefinite"></animate>
  </rect>
</g><g transform="rotate(168 50 50)">
  <rect x="46" y="20" rx="11.5" ry="5" width="8" height="10" fill="#0aa1f3">
    <animate attributeName="opacity" values="1;0" keyTimes="0;1" dur="0.7s" begin="-0.3266666666666666s" repeatCount="indefinite"></animate>
  </rect>
</g><g transform="rotate(192 50 50)">
  <rect x="46" y="20" rx="11.5" ry="5" width="8" height="10" fill="#0aa1f3">
    <animate attributeName="opacity" values="1;0" keyTimes="0;1" dur="0.7s" begin="-0.27999999999999997s" repeatCount="indefinite"></animate>
  </rect>
</g><g transform="rotate(216 50 50)">
  <rect x="46" y="20" rx="11.5" ry="5" width="8" height="10" fill="#0aa1f3">
    <animate attributeName="opacity" values="1;0" keyTimes="0;1" dur="0.7s" begin="-0.23333333333333334s" repeatCount="indefinite"></animate>
  </rect>
</g><g transform="rotate(240 50 50)">
  <rect x="46" y="20" rx="11.5" ry="5" width="8" height="10" fill="#0aa1f3">
    <animate attributeName="opacity" values="1;0" keyTimes="0;1" dur="0.7s" begin="-0.18666666666666665s" repeatCount="indefinite"></animate>
  </rect>
</g><g transform="rotate(264 50 50)">
  <rect x="46" y="20" rx="11.5" ry="5" width="8" height="10" fill="#0aa1f3">
    <animate attributeName="opacity" values="1;0" keyTimes="0;1" dur="0.7s" begin="-0.13999999999999999s" repeatCount="indefinite"></animate>
  </rect>
</g><g transform="rotate(288 50 50)">
  <rect x="46" y="20" rx="11.5" ry="5" width="8" height="10" fill="#0aa1f3">
    <animate attributeName="opacity" values="1;0" keyTimes="0;1" dur="0.7s" begin="-0.09333333333333332s" repeatCount="indefinite"></animate>
  </rect>
</g><g transform="rotate(312 50 50)">
  <rect x="46" y="20" rx="11.5" ry="5" width="8" height="10" fill="#0aa1f3">
    <animate attributeName="opacity" values="1;0" keyTimes="0;1" dur="0.7s" begin="-0.04666666666666666s" repeatCount="indefinite"></animate>
  </rect>
</g><g transform="rotate(336 50 50)">
  <rect x="46" y="20" rx="11.5" ry="5" width="8" height="10" fill="#0aa1f3">
    <animate attributeName="opacity" values="1;0" keyTimes="0;1" dur="0.7s" begin="0s" repeatCount="indefinite"></animate>
  </rect>
</g></svg>